# xmcd
#
# Track frame offsets:
#	150
#	15850
#	30948
#	47083
#	62080
#	78095
#	94662
#	110631
#	126807
#	143111
#	158361
#	173337
#	188682
#	205529
#	221490
#	236509
#	251243
#	264957
#	280444
#	295407
#
# Disc length: 4146 seconds
#
# Revision: 1
# Processed by: cddbd v1.5.2PL0 Copyright (c) Steve Scherf et al.
# Submitted via: audiograbber 1.83.01
#
DISCID=04103014
DTITLE=Seer - fesch
DYEAR=2015
DGENRE=Folk-Rock
TTITLE0=Kimm guat hoam
TTITLE1=Fesch
TTITLE2=Gletscherträne
TTITLE3=Sitz di zum See
TTITLE4=Wonn du des sehen könntest
TTITLE5=Rock n Roll Himmi
TTITLE6=Es gibt Leichteres oba nix Schöneres
TTITLE7=Atme tief durch
TTITLE8=Bei uns dahoam
TTITLE9=Liab des Leben leb die Liab
TTITLE10=Bledsinn
TTITLE11=Hoamweh noch euch 2
TTITLE12=Stärker
TTITLE13=Seelenzwilling
TTITLE14=Gogolorigsong
TTITLE15=100+
TTITLE16=Sonnenalm
TTITLE17=Schlussliacht
TTITLE18=Wilds Wossa (klassisch fesch)
TTITLE19=Olle für Oan
EXTD=Libro Edition
EXTT0=
EXTT1=
EXTT2=
EXTT3=
EXTT4=
EXTT5=
EXTT6=
EXTT7=
EXTT8=
EXTT9=
EXTT10=
EXTT11=
EXTT12=
EXTT13=
EXTT14=
EXTT15=
EXTT16=
EXTT17=
EXTT18=
EXTT19=
PLAYORDER=
